<mxfile host="Electron" modified="2024-04-05T03:16:58.333Z" agent="Mozilla/5.0 (Windows NT 10.0; Win64; x64) AppleWebKit/537.36 (KHTML, like Gecko) draw.io/24.1.0 Chrome/120.0.6099.109 Electron/28.1.0 Safari/537.36" etag="JZZ9jwR34F0jhWUmCsMa" version="24.1.0" type="device" pages="2">
  <diagram name="Webhook" id="Xmom0aQUCWAJ9cqpgr0D">
    <mxGraphModel dx="743" dy="497" grid="1" gridSize="10" guides="1" tooltips="1" connect="1" arrows="1" fold="1" page="1" pageScale="1" pageWidth="1169" pageHeight="827" math="0" shadow="0">
      <root>
        <mxCell id="0" />
        <mxCell id="1" parent="0" />
        <mxCell id="cBbnotDOm9VThtohgtns-4" value="" style="shape=umlLifeline;perimeter=lifelinePerimeter;whiteSpace=wrap;html=1;container=1;dropTarget=0;collapsible=0;recursiveResize=0;outlineConnect=0;portConstraint=eastwest;newEdgeStyle={&quot;curved&quot;:0,&quot;rounded&quot;:0};participant=umlActor;" parent="1" vertex="1">
          <mxGeometry x="130" y="40" width="20" height="200" as="geometry" />
        </mxCell>
        <mxCell id="cBbnotDOm9VThtohgtns-12" value="" style="html=1;points=[[0,0,0,0,5],[0,1,0,0,-5],[1,0,0,0,5],[1,1,0,0,-5]];perimeter=orthogonalPerimeter;outlineConnect=0;targetShapes=umlLifeline;portConstraint=eastwest;newEdgeStyle={&quot;curved&quot;:0,&quot;rounded&quot;:0};" parent="cBbnotDOm9VThtohgtns-4" vertex="1">
          <mxGeometry x="5" y="70" width="10" height="30" as="geometry" />
        </mxCell>
        <mxCell id="cBbnotDOm9VThtohgtns-25" value="" style="html=1;points=[[0,0,0,0,5],[0,1,0,0,-5],[1,0,0,0,5],[1,1,0,0,-5]];perimeter=orthogonalPerimeter;outlineConnect=0;targetShapes=umlLifeline;portConstraint=eastwest;newEdgeStyle={&quot;curved&quot;:0,&quot;rounded&quot;:0};" parent="cBbnotDOm9VThtohgtns-4" vertex="1">
          <mxGeometry x="5" y="140" width="10" height="20" as="geometry" />
        </mxCell>
        <mxCell id="cBbnotDOm9VThtohgtns-5" value="GitLink" style="text;html=1;align=center;verticalAlign=middle;whiteSpace=wrap;rounded=0;" parent="1" vertex="1">
          <mxGeometry x="110" width="60" height="40" as="geometry" />
        </mxCell>
        <mxCell id="cBbnotDOm9VThtohgtns-7" value="" style="shape=umlLifeline;perimeter=lifelinePerimeter;whiteSpace=wrap;html=1;container=1;dropTarget=0;collapsible=0;recursiveResize=0;outlineConnect=0;portConstraint=eastwest;newEdgeStyle={&quot;curved&quot;:0,&quot;rounded&quot;:0};participant=umlControl;" parent="1" vertex="1">
          <mxGeometry x="240" y="40" width="40" height="200" as="geometry" />
        </mxCell>
        <mxCell id="cBbnotDOm9VThtohgtns-13" value="" style="html=1;points=[[0,0,0,0,5],[0,1,0,0,-5],[1,0,0,0,5],[1,1,0,0,-5]];perimeter=orthogonalPerimeter;outlineConnect=0;targetShapes=umlLifeline;portConstraint=eastwest;newEdgeStyle={&quot;curved&quot;:0,&quot;rounded&quot;:0};" parent="cBbnotDOm9VThtohgtns-7" vertex="1">
          <mxGeometry x="15" y="70" width="10" height="90" as="geometry" />
        </mxCell>
        <mxCell id="cBbnotDOm9VThtohgtns-8" value="Webhook Controller" style="text;html=1;align=center;verticalAlign=middle;whiteSpace=wrap;rounded=0;" parent="1" vertex="1">
          <mxGeometry x="230" width="60" height="40" as="geometry" />
        </mxCell>
        <mxCell id="cBbnotDOm9VThtohgtns-15" value="Push to Repo" style="html=1;verticalAlign=bottom;endArrow=block;curved=0;rounded=0;" parent="1" source="cBbnotDOm9VThtohgtns-12" target="cBbnotDOm9VThtohgtns-13" edge="1">
          <mxGeometry width="80" relative="1" as="geometry">
            <mxPoint x="230" y="120" as="sourcePoint" />
            <mxPoint x="250" y="120" as="targetPoint" />
            <Array as="points">
              <mxPoint x="210" y="120" />
            </Array>
          </mxGeometry>
        </mxCell>
        <mxCell id="cBbnotDOm9VThtohgtns-20" value="" style="shape=umlLifeline;perimeter=lifelinePerimeter;whiteSpace=wrap;html=1;container=1;dropTarget=0;collapsible=0;recursiveResize=0;outlineConnect=0;portConstraint=eastwest;newEdgeStyle={&quot;curved&quot;:0,&quot;rounded&quot;:0};participant=umlControl;" parent="1" vertex="1">
          <mxGeometry x="360" y="40" width="40" height="200" as="geometry" />
        </mxCell>
        <mxCell id="cBbnotDOm9VThtohgtns-22" value="" style="html=1;points=[[0,0,0,0,5],[0,1,0,0,-5],[1,0,0,0,5],[1,1,0,0,-5]];perimeter=orthogonalPerimeter;outlineConnect=0;targetShapes=umlLifeline;portConstraint=eastwest;newEdgeStyle={&quot;curved&quot;:0,&quot;rounded&quot;:0};" parent="cBbnotDOm9VThtohgtns-20" vertex="1">
          <mxGeometry x="15" y="70" width="10" height="90" as="geometry" />
        </mxCell>
        <mxCell id="cBbnotDOm9VThtohgtns-28" value="Add task to pending queue" style="html=1;align=left;spacingLeft=2;endArrow=block;rounded=0;edgeStyle=orthogonalEdgeStyle;curved=0;rounded=0;" parent="cBbnotDOm9VThtohgtns-20" source="cBbnotDOm9VThtohgtns-22" target="cBbnotDOm9VThtohgtns-22" edge="1">
          <mxGeometry relative="1" as="geometry">
            <mxPoint x="30" y="140" as="sourcePoint" />
            <Array as="points">
              <mxPoint x="50" y="100" />
              <mxPoint x="50" y="130" />
            </Array>
            <mxPoint x="24.999999999999886" y="170.0344827586207" as="targetPoint" />
          </mxGeometry>
        </mxCell>
        <mxCell id="cBbnotDOm9VThtohgtns-21" value="Repository Controller" style="text;html=1;align=center;verticalAlign=middle;whiteSpace=wrap;rounded=0;" parent="1" vertex="1">
          <mxGeometry x="350" width="60" height="40" as="geometry" />
        </mxCell>
        <mxCell id="cBbnotDOm9VThtohgtns-23" value="Request new task" style="html=1;verticalAlign=bottom;endArrow=block;curved=0;rounded=0;" parent="1" source="cBbnotDOm9VThtohgtns-13" target="cBbnotDOm9VThtohgtns-22" edge="1">
          <mxGeometry x="0.0043" width="80" relative="1" as="geometry">
            <mxPoint x="270" y="130" as="sourcePoint" />
            <mxPoint x="350" y="130" as="targetPoint" />
            <Array as="points">
              <mxPoint x="350" y="130" />
            </Array>
            <mxPoint as="offset" />
          </mxGeometry>
        </mxCell>
        <mxCell id="cBbnotDOm9VThtohgtns-24" value="New task descriptor" style="html=1;verticalAlign=bottom;endArrow=open;dashed=1;endSize=8;curved=0;rounded=0;" parent="1" edge="1">
          <mxGeometry relative="1" as="geometry">
            <mxPoint x="375" y="180" as="sourcePoint" />
            <mxPoint x="265" y="180" as="targetPoint" />
          </mxGeometry>
        </mxCell>
        <mxCell id="cBbnotDOm9VThtohgtns-26" value="Task created!" style="html=1;verticalAlign=bottom;endArrow=open;dashed=1;endSize=8;curved=0;rounded=0;" parent="1" edge="1">
          <mxGeometry relative="1" as="geometry">
            <mxPoint x="255" y="189.86" as="sourcePoint" />
            <mxPoint x="145" y="189.86" as="targetPoint" />
            <Array as="points">
              <mxPoint x="200" y="189.86" />
            </Array>
          </mxGeometry>
        </mxCell>
      </root>
    </mxGraphModel>
  </diagram>
  <diagram id="nnq14rGsuu7l0X4-YH5n" name="Page-2">
    <mxGraphModel dx="425" dy="284" grid="1" gridSize="10" guides="1" tooltips="1" connect="1" arrows="1" fold="1" page="1" pageScale="1" pageWidth="1169" pageHeight="827" math="0" shadow="0">
      <root>
        <mxCell id="0" />
        <mxCell id="1" parent="0" />
        <mxCell id="Qbc8HWABGpsiqOuwfYrg-4" value="" style="edgeStyle=orthogonalEdgeStyle;rounded=0;orthogonalLoop=1;jettySize=auto;html=1;" edge="1" parent="1" source="bFkOc8JnUyofKlXcG-lH-2" target="Qbc8HWABGpsiqOuwfYrg-1">
          <mxGeometry relative="1" as="geometry" />
        </mxCell>
        <mxCell id="bFkOc8JnUyofKlXcG-lH-2" value="Clone repository" style="rounded=1;whiteSpace=wrap;html=1;" vertex="1" parent="1">
          <mxGeometry x="240" y="120" width="120" height="40" as="geometry" />
        </mxCell>
        <mxCell id="Qbc8HWABGpsiqOuwfYrg-5" value="" style="edgeStyle=orthogonalEdgeStyle;rounded=0;orthogonalLoop=1;jettySize=auto;html=1;" edge="1" parent="1" source="Qbc8HWABGpsiqOuwfYrg-1" target="Qbc8HWABGpsiqOuwfYrg-3">
          <mxGeometry relative="1" as="geometry" />
        </mxCell>
        <mxCell id="Qbc8HWABGpsiqOuwfYrg-1" value="Load configuration" style="rounded=1;whiteSpace=wrap;html=1;" vertex="1" parent="1">
          <mxGeometry x="240" y="200" width="120" height="40" as="geometry" />
        </mxCell>
        <mxCell id="Qbc8HWABGpsiqOuwfYrg-14" value="" style="edgeStyle=orthogonalEdgeStyle;rounded=0;orthogonalLoop=1;jettySize=auto;html=1;" edge="1" parent="1" source="Qbc8HWABGpsiqOuwfYrg-2" target="Qbc8HWABGpsiqOuwfYrg-6">
          <mxGeometry relative="1" as="geometry" />
        </mxCell>
        <mxCell id="Qbc8HWABGpsiqOuwfYrg-2" value="Notify user" style="rounded=1;whiteSpace=wrap;html=1;" vertex="1" parent="1">
          <mxGeometry x="440" y="280" width="120" height="40" as="geometry" />
        </mxCell>
        <mxCell id="Qbc8HWABGpsiqOuwfYrg-9" value="" style="edgeStyle=orthogonalEdgeStyle;rounded=0;orthogonalLoop=1;jettySize=auto;html=1;" edge="1" parent="1" source="Qbc8HWABGpsiqOuwfYrg-3" target="Qbc8HWABGpsiqOuwfYrg-8">
          <mxGeometry relative="1" as="geometry" />
        </mxCell>
        <mxCell id="Qbc8HWABGpsiqOuwfYrg-13" value="N" style="edgeStyle=orthogonalEdgeStyle;rounded=0;orthogonalLoop=1;jettySize=auto;html=1;" edge="1" parent="1" source="Qbc8HWABGpsiqOuwfYrg-3" target="Qbc8HWABGpsiqOuwfYrg-2">
          <mxGeometry relative="1" as="geometry">
            <Array as="points">
              <mxPoint x="410" y="300" />
              <mxPoint x="410" y="300" />
            </Array>
          </mxGeometry>
        </mxCell>
        <mxCell id="Qbc8HWABGpsiqOuwfYrg-3" value="Has Configuration?" style="rhombus;whiteSpace=wrap;html=1;" vertex="1" parent="1">
          <mxGeometry x="200" y="280" width="200" height="40" as="geometry" />
        </mxCell>
        <mxCell id="Qbc8HWABGpsiqOuwfYrg-6" value="Exit" style="rounded=1;whiteSpace=wrap;html=1;arcSize=50;" vertex="1" parent="1">
          <mxGeometry x="440" y="360" width="120" height="40" as="geometry" />
        </mxCell>
        <mxCell id="Qbc8HWABGpsiqOuwfYrg-12" value="N" style="edgeStyle=orthogonalEdgeStyle;rounded=0;orthogonalLoop=1;jettySize=auto;html=1;" edge="1" parent="1" source="Qbc8HWABGpsiqOuwfYrg-8" target="Qbc8HWABGpsiqOuwfYrg-11">
          <mxGeometry relative="1" as="geometry" />
        </mxCell>
        <mxCell id="Qbc8HWABGpsiqOuwfYrg-16" style="edgeStyle=orthogonalEdgeStyle;rounded=0;orthogonalLoop=1;jettySize=auto;html=1;" edge="1" parent="1" source="Qbc8HWABGpsiqOuwfYrg-8" target="Qbc8HWABGpsiqOuwfYrg-17">
          <mxGeometry relative="1" as="geometry">
            <mxPoint x="299.9999999999999" y="440" as="targetPoint" />
          </mxGeometry>
        </mxCell>
        <mxCell id="Qbc8HWABGpsiqOuwfYrg-8" value="Is desired branch?" style="rhombus;whiteSpace=wrap;html=1;" vertex="1" parent="1">
          <mxGeometry x="200" y="360" width="200" height="40" as="geometry" />
        </mxCell>
        <mxCell id="Qbc8HWABGpsiqOuwfYrg-11" value="Quit Silently" style="rounded=1;whiteSpace=wrap;html=1;arcSize=50;" vertex="1" parent="1">
          <mxGeometry x="40" y="360" width="120" height="40" as="geometry" />
        </mxCell>
        <mxCell id="Qbc8HWABGpsiqOuwfYrg-21" value="" style="edgeStyle=orthogonalEdgeStyle;rounded=0;orthogonalLoop=1;jettySize=auto;html=1;" edge="1" parent="1" source="Qbc8HWABGpsiqOuwfYrg-17" target="Qbc8HWABGpsiqOuwfYrg-18">
          <mxGeometry relative="1" as="geometry" />
        </mxCell>
        <mxCell id="Qbc8HWABGpsiqOuwfYrg-17" value="Checkout branch" style="rounded=1;whiteSpace=wrap;html=1;" vertex="1" parent="1">
          <mxGeometry x="240" y="440" width="120" height="40" as="geometry" />
        </mxCell>
        <mxCell id="Qbc8HWABGpsiqOuwfYrg-20" value="" style="edgeStyle=orthogonalEdgeStyle;rounded=0;orthogonalLoop=1;jettySize=auto;html=1;" edge="1" parent="1" source="Qbc8HWABGpsiqOuwfYrg-18" target="Qbc8HWABGpsiqOuwfYrg-19">
          <mxGeometry relative="1" as="geometry" />
        </mxCell>
        <mxCell id="Qbc8HWABGpsiqOuwfYrg-18" value="Build Graph" style="rounded=1;whiteSpace=wrap;html=1;" vertex="1" parent="1">
          <mxGeometry x="240" y="520" width="120" height="40" as="geometry" />
        </mxCell>
        <mxCell id="Qbc8HWABGpsiqOuwfYrg-26" value="" style="edgeStyle=orthogonalEdgeStyle;rounded=0;orthogonalLoop=1;jettySize=auto;html=1;" edge="1" parent="1" source="Qbc8HWABGpsiqOuwfYrg-19" target="Qbc8HWABGpsiqOuwfYrg-25">
          <mxGeometry relative="1" as="geometry" />
        </mxCell>
        <mxCell id="Qbc8HWABGpsiqOuwfYrg-19" value="Scan Bugs" style="rounded=1;whiteSpace=wrap;html=1;" vertex="1" parent="1">
          <mxGeometry x="240" y="600" width="120" height="40" as="geometry" />
        </mxCell>
        <mxCell id="Qbc8HWABGpsiqOuwfYrg-24" value="" style="edgeStyle=orthogonalEdgeStyle;rounded=0;orthogonalLoop=1;jettySize=auto;html=1;" edge="1" parent="1" source="Qbc8HWABGpsiqOuwfYrg-23" target="bFkOc8JnUyofKlXcG-lH-2">
          <mxGeometry relative="1" as="geometry" />
        </mxCell>
        <mxCell id="Qbc8HWABGpsiqOuwfYrg-23" value="Initialize Folder" style="rounded=1;whiteSpace=wrap;html=1;" vertex="1" parent="1">
          <mxGeometry x="240" y="40" width="120" height="40" as="geometry" />
        </mxCell>
        <mxCell id="Qbc8HWABGpsiqOuwfYrg-33" value="" style="edgeStyle=orthogonalEdgeStyle;rounded=0;orthogonalLoop=1;jettySize=auto;html=1;" edge="1" parent="1" source="Qbc8HWABGpsiqOuwfYrg-25" target="Qbc8HWABGpsiqOuwfYrg-31">
          <mxGeometry relative="1" as="geometry" />
        </mxCell>
        <mxCell id="Qbc8HWABGpsiqOuwfYrg-25" value="Generate Report" style="rounded=1;whiteSpace=wrap;html=1;" vertex="1" parent="1">
          <mxGeometry x="240" y="680" width="120" height="40" as="geometry" />
        </mxCell>
        <mxCell id="Qbc8HWABGpsiqOuwfYrg-29" value="Exception" style="edgeStyle=orthogonalEdgeStyle;rounded=0;orthogonalLoop=1;jettySize=auto;html=1;" edge="1" parent="1" source="Qbc8HWABGpsiqOuwfYrg-27" target="Qbc8HWABGpsiqOuwfYrg-28">
          <mxGeometry relative="1" as="geometry" />
        </mxCell>
        <mxCell id="Qbc8HWABGpsiqOuwfYrg-27" value="" style="rounded=0;whiteSpace=wrap;html=1;fillColor=none;dashed=1;" vertex="1" parent="1">
          <mxGeometry x="200" y="500" width="200" height="160" as="geometry" />
        </mxCell>
        <mxCell id="Qbc8HWABGpsiqOuwfYrg-32" style="edgeStyle=orthogonalEdgeStyle;rounded=0;orthogonalLoop=1;jettySize=auto;html=1;" edge="1" parent="1" source="Qbc8HWABGpsiqOuwfYrg-28" target="Qbc8HWABGpsiqOuwfYrg-31">
          <mxGeometry relative="1" as="geometry">
            <mxPoint x="320" y="750" as="targetPoint" />
            <Array as="points">
              <mxPoint x="540" y="740" />
              <mxPoint x="300" y="740" />
            </Array>
          </mxGeometry>
        </mxCell>
        <mxCell id="Qbc8HWABGpsiqOuwfYrg-28" value="Exception Report" style="rounded=1;whiteSpace=wrap;html=1;" vertex="1" parent="1">
          <mxGeometry x="480" y="560" width="120" height="40" as="geometry" />
        </mxCell>
        <mxCell id="Qbc8HWABGpsiqOuwfYrg-35" value="" style="edgeStyle=orthogonalEdgeStyle;rounded=0;orthogonalLoop=1;jettySize=auto;html=1;" edge="1" parent="1" source="Qbc8HWABGpsiqOuwfYrg-31" target="Qbc8HWABGpsiqOuwfYrg-37">
          <mxGeometry relative="1" as="geometry">
            <mxPoint x="300" y="840" as="targetPoint" />
          </mxGeometry>
        </mxCell>
        <mxCell id="Qbc8HWABGpsiqOuwfYrg-31" value="Delete Folder" style="rounded=1;whiteSpace=wrap;html=1;" vertex="1" parent="1">
          <mxGeometry x="240" y="760" width="120" height="40" as="geometry" />
        </mxCell>
        <mxCell id="Qbc8HWABGpsiqOuwfYrg-36" value="Exit" style="rounded=1;whiteSpace=wrap;html=1;arcSize=50;" vertex="1" parent="1">
          <mxGeometry x="240" y="920" width="120" height="37" as="geometry" />
        </mxCell>
        <mxCell id="Qbc8HWABGpsiqOuwfYrg-38" value="" style="edgeStyle=orthogonalEdgeStyle;rounded=0;orthogonalLoop=1;jettySize=auto;html=1;" edge="1" parent="1" source="Qbc8HWABGpsiqOuwfYrg-37" target="Qbc8HWABGpsiqOuwfYrg-36">
          <mxGeometry relative="1" as="geometry" />
        </mxCell>
        <mxCell id="Qbc8HWABGpsiqOuwfYrg-37" value="Notify User" style="rounded=1;whiteSpace=wrap;html=1;" vertex="1" parent="1">
          <mxGeometry x="240" y="840" width="120" height="40" as="geometry" />
        </mxCell>
      </root>
    </mxGraphModel>
  </diagram>
</mxfile>
